<?xml version="1.0" standalone="no"?>
<!DOCTYPE svg PUBLIC "-//W3C//DTD SVG 20010904//EN"
 "http://www.w3.org/TR/2001/REC-SVG-20010904/DTD/svg10.dtd">
<svg version="1.0" xmlns="http://www.w3.org/2000/svg"
 width="200.000000pt" height="195.000000pt" viewBox="0 0 200.000000 195.000000"
 preserveAspectRatio="xMidYMid meet">

<g transform="translate(0.000000,195.000000) scale(0.100000,-0.100000)"
fill="#000000" stroke="none">
<path d="M1048 1903 c6 -2 18 -2 25 0 6 3 1 5 -13 5 -14 0 -19 -2 -12 -5z"/>
<path d="M804 1876 c-155 -41 -366 -160 -479 -272 -70 -69 -141 -173 -180
-264 -15 -36 -31 -74 -36 -85 -41 -97 -57 -322 -30 -435 18 -76 78 -244 103
-288 56 -98 112 -175 168 -228 264 -251 619 -327 970 -206 276 95 500 340 578
632 23 87 33 170 21 170 -5 0 -9 -17 -9 -38 0 -84 -80 -293 -149 -389 -48 -67
-146 -165 -201 -203 -30 -21 -66 -48 -80 -60 -36 -32 -123 -74 -220 -106 -80
-26 -95 -28 -250 -27 -156 0 -170 2 -257 30 -136 45 -264 126 -382 241 -54 54
-106 114 -115 135 -10 21 -29 82 -42 135 -46 175 -33 365 33 516 48 108 142
230 227 294 l29 22 -21 23 c-42 45 -18 108 54 142 40 19 105 15 224 -11 50
-11 70 -12 92 -3 17 7 66 10 127 7 92 -3 99 -2 86 12 -21 23 -20 47 0 30 8 -7
15 -19 15 -26 0 -8 3 -13 8 -13 21 4 32 -2 26 -13 -5 -9 -2 -9 9 1 9 7 18 11
18 7 1 -3 3 -10 4 -16 1 -5 3 -15 4 -21 1 -8 6 -8 16 1 10 8 15 9 15 1 0 -6
-14 -18 -31 -26 -17 -9 -28 -19 -26 -22 3 -3 20 2 38 11 l33 16 -25 -26 c-18
-21 -20 -26 -6 -21 9 4 17 2 17 -3 0 -14 -18 -21 -25 -10 -3 5 -15 10 -25 10
-25 0 -35 17 -20 35 10 12 10 15 0 15 -6 0 -14 -9 -17 -20 -3 -11 -10 -20 -15
-20 -6 0 -7 8 -4 17 6 15 4 15 -14 -2 -11 -10 -20 -30 -20 -45 0 -14 -4 -30
-9 -36 -5 -5 -12 -29 -15 -54 -5 -44 -5 -44 5 -10 12 39 26 60 41 60 5 0 6 -6
1 -12 -4 -7 -8 -17 -8 -23 -3 -28 -27 -66 -49 -75 -13 -5 -27 -13 -31 -19 -3
-7 0 -8 9 -5 21 8 20 -6 -3 -33 -20 -24 -41 -30 -41 -13 0 6 7 10 15 10 8 0
15 3 15 8 0 4 -18 7 -40 7 -32 0 -39 -3 -34 -15 3 -8 7 -36 9 -62 2 -25 7 -62
10 -81 5 -27 3 -36 -11 -41 -9 -4 -22 -2 -28 4 -7 7 -5 10 6 10 13 0 14 6 8
34 -4 18 -11 39 -15 47 -13 20 -23 89 -13 83 5 -3 13 -16 18 -28 l9 -21 0 22
c1 12 -4 25 -10 28 -6 4 -8 13 -5 20 2 7 -4 15 -14 18 -13 3 -17 0 -13 -9 3
-7 -8 -35 -25 -62 -16 -26 -33 -59 -37 -71 -6 -19 -9 -21 -17 -10 -7 10 -8 8
-3 -8 3 -12 1 -24 -5 -28 -5 -3 -10 -15 -10 -26 0 -10 -4 -19 -10 -19 -5 0
-10 -4 -10 -9 0 -6 12 -4 27 4 21 11 30 12 41 2 12 -10 14 -8 8 9 -4 13 0 29
12 45 11 13 23 35 27 48 14 44 26 -10 16 -72 0 -5 -5 -5 -11 -2 -5 3 -10 2
-10 -3 0 -6 7 -13 16 -16 14 -5 14 -9 3 -23 -10 -12 -10 -14 -1 -9 17 10 15
-2 -8 -39 -11 -18 -35 -38 -52 -44 -17 -6 -29 -13 -26 -16 18 -19 118 66 118
100 0 20 34 19 73 -1 62 -33 67 -34 67 -24 0 5 5 10 10 10 6 0 10 -7 10 -15 0
-8 9 -24 20 -35 12 -12 18 -25 15 -29 -7 -13 40 -41 67 -40 18 1 17 3 -9 10
-41 12 -56 33 -16 23 l28 -7 -32 27 c-38 32 -41 42 -13 49 20 5 29 37 9 37 -5
0 3 11 18 24 15 13 30 22 33 19 3 -2 -2 -10 -10 -16 -18 -14 -26 -62 -8 -51 8
5 9 2 5 -9 -3 -10 -2 -17 4 -17 5 0 14 -10 19 -22 6 -17 9 -18 9 -6 1 9 -3 20
-9 23 -5 3 -10 13 -10 22 0 13 3 13 15 3 12 -10 15 -10 15 1 1 9 5 8 15 -5 8
-11 15 -15 15 -9 0 14 -25 34 -33 26 -4 -3 -7 -1 -7 5 0 6 12 18 28 27 19 11
21 14 6 10 -27 -7 -47 17 -47 56 0 16 -4 25 -8 18 -5 -8 -10 -5 -18 9 -16 29
-14 32 17 32 16 0 45 -12 65 -27 28 -22 37 -38 42 -70 13 -77 -15 -146 -68
-168 -16 -7 -25 -15 -20 -18 19 -12 74 34 93 76 24 52 25 85 4 152 l-17 52
-69 16 c-38 10 -74 15 -79 11 -5 -3 -20 4 -34 14 -21 17 -22 21 -9 26 9 3 23
6 33 6 20 0 74 53 64 63 -3 4 2 7 13 8 13 0 9 5 -14 15 -18 8 -30 19 -27 24 3
6 -5 10 -19 10 -14 0 -26 3 -26 6 0 11 45 43 60 43 11 0 8 -5 -8 -19 l-23 -19
38 6 c48 7 52 11 29 28 -21 16 -13 37 10 28 11 -4 12 -8 4 -13 -7 -4 -8 -10
-3 -13 4 -3 17 1 27 8 17 13 17 14 -8 21 -23 5 -26 11 -26 48 l1 41 24 -28
c13 -15 29 -46 35 -70 6 -23 13 -48 15 -54 6 -18 54 -16 89 2 42 22 56 6 56
-67 0 -43 3 -59 13 -55 7 2 12 22 12 51 0 40 2 44 13 29 18 -25 15 -85 -9
-148 -24 -65 -20 -98 9 -72 11 11 22 13 32 7 12 -8 12 -14 -3 -45 -21 -44 -22
-65 -2 -65 26 0 17 -15 -32 -52 -71 -54 -146 -135 -139 -147 10 -16 53 -13 93
6 27 13 41 30 60 71 13 30 27 52 30 48 4 -3 0 -17 -7 -31 -17 -32 -7 -42 26
-27 33 16 65 88 71 163 4 36 10 59 18 59 6 0 18 12 25 28 16 32 14 25 24 85 4
26 11 47 16 47 5 0 11 -26 15 -57 4 -32 8 -64 11 -71 6 -21 45 -10 67 20 24
32 35 153 19 211 -6 20 -9 37 -7 37 5 0 82 -105 88 -120 3 -10 6 -11 6 -2 1 7
-11 36 -25 65 -135 265 -373 457 -636 511 -42 9 -130 18 -195 20 -101 4 -131
2 -209 -18z m315 -181 c3 -16 1 -17 -12 -7 -12 10 -18 10 -30 -3 -20 -19 -34
-1 -16 21 17 20 53 14 58 -11z m4 -25 c7 0 3 -7 -7 -15 -16 -12 -22 -12 -28
-2 -12 20 -9 30 8 23 9 -3 21 -6 27 -6z m-39 -183 c-3 -8 -12 -14 -21 -14 -13
0 -13 2 3 14 10 7 19 13 21 13 1 0 0 -6 -3 -13z m402 -108 c20 -40 31 -139 15
-139 -7 0 -11 19 -11 48 0 26 -4 52 -8 58 -5 5 -13 21 -20 37 -16 38 4 35 24
-4z m-427 -36 c-8 -10 -18 -21 -24 -25 -6 -5 -6 -8 2 -8 21 0 43 12 43 24 0 6
14 12 30 13 17 1 30 -2 30 -7 0 -5 8 -7 18 -4 14 5 15 4 2 -5 -11 -8 -12 -11
-2 -11 7 0 10 -4 7 -10 -10 -16 -22 -12 -28 10 -5 20 -5 20 -41 -1 -37 -22
-54 -39 -38 -39 5 0 15 6 21 14 21 26 47 25 49 -1 2 -21 0 -22 -19 -12 -17 9
-24 7 -40 -10 -21 -23 -45 -29 -33 -8 5 8 2 8 -9 -2 -15 -12 -16 -10 -11 20 8
40 30 79 45 79 7 0 6 -6 -2 -17z m-48 -116 c-13 -17 -5 -27 17 -20 14 4 14 3
3 -5 -7 -5 -11 -14 -7 -20 8 -14 -14 -75 -33 -89 -28 -20 -41 4 -41 78 l0 69
36 0 c29 0 34 -3 25 -13z m54 -7 c3 -5 1 -10 -4 -10 -6 0 -11 5 -11 10 0 6 2
10 4 10 3 0 8 -4 11 -10z m445 -35 c0 -24 -5 -35 -15 -35 -16 0 -18 12 -9 48
10 34 24 26 24 -13z m-700 -46 c-31 -42 -35 -31 -8 19 14 25 24 36 26 27 2 -8
-6 -29 -18 -46z m245 -1 c-8 -37 -12 -44 -21 -35 -9 9 6 67 18 67 6 0 7 -13 3
-32z m90 2 c9 -18 11 -30 5 -30 -6 0 -15 12 -21 26 -5 15 -12 24 -15 21 -3 -3
-1 -14 5 -25 14 -25 14 -32 1 -32 -12 0 -24 45 -15 59 11 18 24 12 40 -19z
m-180 -70 c3 -5 1 -10 -4 -10 -6 0 -11 5 -11 10 0 6 2 10 4 10 3 0 8 -4 11
-10z m85 2 c0 -4 -10 -13 -21 -20 -16 -10 -24 -11 -33 -2 -8 8 -6 9 8 4 16 -6
18 -4 13 9 -5 12 -1 17 13 17 11 0 20 -3 20 -8z m40 -22 c-8 -5 -19 -10 -25
-10 -5 0 -3 5 5 10 8 5 20 10 25 10 6 0 3 -5 -5 -10z"/>
<path d="M1067 1582 c-25 -27 -21 -35 8 -16 25 16 33 34 17 34 -5 0 -16 -8
-25 -18z"/>
<path d="M1120 1570 c0 -5 5 -10 11 -10 5 0 7 5 4 10 -3 6 -8 10 -11 10 -2 0
-4 -4 -4 -10z"/>
<path d="M1187 1370 c3 -11 7 -20 9 -20 2 0 4 9 4 20 0 11 -4 20 -9 20 -5 0
-7 -9 -4 -20z"/>
<path d="M720 1346 c14 -7 36 -16 50 -20 14 -3 7 3 -15 13 -45 22 -73 27 -35
7z"/>
<path d="M1340 1282 c8 -5 26 -13 40 -16 17 -5 20 -4 10 2 -8 5 -26 13 -40 16
-17 5 -20 4 -10 -2z"/>
<path d="M740 1242 c0 -5 -11 -15 -24 -22 -28 -14 -56 -75 -56 -119 0 -49 20
-90 52 -106 42 -20 43 -19 14 12 -62 66 -32 215 42 208 15 -1 21 3 18 11 -3 7
3 15 12 17 9 3 0 5 -20 6 -21 0 -38 -3 -38 -7z"/>
<path d="M1368 1163 c7 -3 16 -2 19 1 4 3 -2 6 -13 5 -11 0 -14 -3 -6 -6z"/>
<path d="M1900 1165 c0 -5 5 -17 10 -25 5 -8 10 -10 10 -5 0 6 -5 17 -10 25
-5 8 -10 11 -10 5z"/>
<path d="M1200 1099 c0 -5 5 -7 10 -4 6 3 10 8 10 11 0 2 -4 4 -10 4 -5 0 -10
-5 -10 -11z"/>
<path d="M1620 1083 c0 -22 17 -49 25 -41 8 8 -5 58 -16 58 -5 0 -9 -8 -9 -17z"/>
<path d="M781 1054 c0 -11 3 -14 6 -6 3 7 2 16 -1 19 -3 4 -6 -2 -5 -13z"/>
<path d="M811 1024 c0 -11 3 -14 6 -6 3 7 2 16 -1 19 -3 4 -6 -2 -5 -13z"/>
<path d="M1931 1004 c0 -11 3 -14 6 -6 3 7 2 16 -1 19 -3 4 -6 -2 -5 -13z"/>
<path d="M1621 999 c0 -9 -17 -40 -37 -69 -41 -60 -41 -99 1 -60 27 26 49 89
42 123 -3 13 -5 15 -6 6z"/>
<path d="M775 980 c-19 -8 -19 -9 3 -9 12 -1 22 4 22 9 0 6 -1 10 -2 9 -2 0
-12 -4 -23 -9z"/>
<path d="M1661 949 c-13 -42 -7 -65 9 -39 9 14 14 80 7 80 -2 0 -9 -18 -16
-41z"/>
<path d="M755 855 c-14 -13 -26 -37 -27 -52 0 -15 -3 -41 -4 -58 -7 -61 8
-266 19 -262 7 2 9 50 8 135 l-2 132 30 0 c38 0 41 17 4 22 -31 4 -38 27 -16
57 15 22 47 28 58 11 9 -15 25 -12 25 5 0 16 -30 35 -55 35 -9 0 -27 -11 -40
-25z"/>
<path d="M1596 859 c-19 -15 -26 -30 -26 -54 0 -19 -3 -36 -7 -38 -12 -8 0
-278 12 -275 6 2 9 31 7 68 -1 36 1 93 4 128 5 57 7 62 30 62 13 0 24 5 24 10
0 6 -11 10 -25 10 -21 0 -25 5 -25 29 0 36 22 55 55 47 35 -9 39 -9 43 2 2 8
-39 32 -57 32 -5 0 -20 -9 -35 -21z"/>
<path d="M309 817 c-9 -7 -21 -22 -28 -35 -17 -33 6 -65 67 -94 51 -25 62 -46
37 -72 -21 -21 -53 -20 -77 1 -22 19 -37 9 -22 -15 28 -45 106 -39 133 10 23
41 3 74 -64 103 -61 27 -71 52 -33 79 30 21 43 20 67 -5 14 -15 21 -17 27 -8
10 17 -32 49 -65 49 -14 0 -33 -6 -42 -13z"/>
<path d="M843 813 c-18 -7 -16 -33 2 -33 8 0 15 9 15 20 0 11 -1 20 -2 19 -2
0 -9 -3 -15 -6z"/>
<path d="M1340 722 c0 -49 3 -104 6 -121 6 -31 7 -31 70 -31 77 0 86 18 12 22
l-53 3 -5 104 c-3 71 -9 106 -17 109 -10 3 -13 -19 -13 -86z"/>
<path d="M1485 801 c-3 -5 -1 -12 5 -16 12 -7 30 2 30 16 0 12 -27 12 -35 0z"/>
<path d="M450 691 c0 -74 2 -81 26 -100 15 -12 37 -21 49 -21 12 0 34 9 49 21
24 19 26 26 26 100 0 51 -4 78 -10 74 -5 -3 -10 -35 -10 -70 0 -69 -14 -95
-54 -95 -31 0 -46 19 -46 59 0 53 -11 111 -21 111 -5 0 -9 -36 -9 -79z"/>
<path d="M630 670 c0 -55 4 -100 9 -100 14 0 23 52 20 107 -3 44 -1 49 24 61
39 19 33 32 -13 32 l-40 0 0 -100z"/>
<path d="M907 764 c-4 -4 -7 -49 -7 -101 0 -76 3 -93 15 -93 12 0 15 16 15 84
0 82 1 84 26 90 17 5 35 1 50 -9 22 -14 24 -22 24 -91 0 -56 3 -75 13 -72 16
6 21 87 7 136 -13 49 -55 72 -101 55 -17 -7 -29 -7 -31 -1 -2 5 -7 6 -11 2z"/>
<path d="M1145 756 c-96 -43 -90 -151 10 -178 48 -13 51 -18 35 -49 -11 -20
-49 -26 -66 -9 -8 8 -14 7 -23 -3 -14 -17 0 -32 41 -42 21 -5 33 -1 52 19 24
23 26 33 28 121 1 52 2 107 2 123 1 22 -4 27 -24 29 -14 2 -38 -3 -55 -11z
m55 -92 c0 -73 -1 -75 -22 -69 -34 10 -66 33 -78 54 -8 16 -4 26 24 55 18 20
43 36 55 36 20 0 21 -5 21 -76z"/>
<path d="M1682 755 c-36 -16 -52 -42 -52 -85 0 -42 15 -67 50 -85 32 -17 90
-20 90 -5 0 5 -18 14 -40 20 -43 11 -70 33 -70 56 0 11 15 14 65 14 57 0 65 2
65 19 0 24 -34 67 -58 73 -11 3 -33 0 -50 -7z m73 -35 c24 -27 17 -32 -45 -28
l-51 3 21 23 c26 27 51 28 75 2z"/>
<path d="M830 703 c0 -73 10 -133 21 -133 10 0 12 150 3 174 -13 33 -24 14
-24 -41z"/>
<path d="M1490 703 c0 -75 10 -134 21 -127 10 6 12 127 3 162 -11 41 -24 22
-24 -35z"/>
<path d="M605 405 c-42 -42 -29 -68 41 -83 48 -10 53 -36 7 -40 -24 -2 -34 2
-43 17 -12 23 -40 28 -40 8 0 -8 11 -24 25 -37 20 -19 32 -22 69 -18 25 3 49
1 55 -5 13 -13 19 3 23 57 3 37 28 66 28 32 0 -9 7 -16 15 -16 10 0 15 -11 15
-35 0 -25 4 -35 15 -35 13 0 15 12 13 68 -2 52 -6 67 -18 67 -8 0 -14 -6 -12
-12 3 -16 -10 -17 -25 -2 -17 17 -63 0 -63 -24 0 -16 -3 -18 -12 -9 -7 7 -22
12 -34 12 -42 0 -55 10 -43 32 9 16 18 19 44 15 38 -6 50 0 34 20 -18 21 -67
16 -94 -12z"/>
<path d="M920 340 l0 -90 123 1 c67 1 129 0 137 -2 11 -3 16 7 18 44 3 39 6
47 23 47 16 0 19 -7 19 -44 0 -25 3 -47 8 -49 15 -9 47 11 53 34 l6 24 11 -26
c11 -28 19 -30 121 -28 22 1 23 4 17 52 -3 29 -6 53 -6 54 0 2 -11 10 -24 18
-21 14 -28 14 -48 4 -13 -7 -30 -12 -40 -11 -9 2 -20 -3 -25 -10 -5 -9 -10 0
-13 25 -7 52 -24 51 -28 -1 -3 -38 -5 -41 -18 -27 -19 18 -84 20 -84 3 0 -9
-3 -10 -8 -2 -4 6 -17 16 -30 23 -19 10 -28 10 -48 -4 -20 -13 -23 -19 -14
-30 8 -9 8 -15 0 -20 -5 -3 -10 -15 -10 -26 0 -16 -7 -19 -55 -19 l-55 0 0 75
c0 60 -3 75 -15 75 -12 0 -15 -17 -15 -90z m207 14 c-3 -3 -12 -4 -19 -1 -8 3
-5 6 6 6 11 1 17 -2 13 -5z m226 -29 c-3 -8 -9 -15 -14 -15 -10 0 -12 24 -3
33 11 11 24 -3 17 -18z m-215 -22 c-4 -22 -48 -31 -48 -10 0 19 10 27 32 27
13 0 18 -6 16 -17z m292 13 c0 -18 -15 -36 -31 -36 -12 0 -19 7 -19 20 0 15 7
20 25 20 14 0 25 -2 25 -4z"/>
</g>
</svg>
